<?xml version="1.0" encoding="UTF-8"?>
<svg version="1.1" xmlns="http://www.w3.org/2000/svg" width="636" height="126">
<path d="M0 0 C209.88 0 419.76 0 636 0 C636 41.25 636 82.5 636 125 C635 126 635 126 633.20484653 126.12467116 C632.01650814 126.12443719 632.01650814 126.12443719 630.80416292 126.1241985 C629.8916957 126.12644579 628.97922849 126.12869308 628.03911075 126.13100848 C627.02297841 126.12838146 626.00684607 126.12575445 624.95992184 126.12304783 C623.8866507 126.12420167 622.81337957 126.12535552 621.70758507 126.12654433 C618.06260493 126.12921958 614.41766778 126.12468141 610.77268982 126.12025452 C608.15257843 126.12069003 605.53246708 126.12156458 602.91235596 126.12284368 C597.19070275 126.12492325 591.46905992 126.12326375 585.74740791 126.11920547 C577.2394287 126.1131876 568.73145608 126.11286807 560.22347513 126.11374746 C545.91393441 126.11506356 531.60439831 126.11171164 517.29485893 126.10573006 C503.1197552 126.09981981 488.94465338 126.09596548 474.76954842 126.09487724 C473.88928695 126.0948085 473.00902549 126.09473976 472.10208943 126.09466894 C467.63196987 126.09433062 463.16185031 126.09402923 458.69173075 126.09374207 C427.00224953 126.09163978 395.31277082 126.0848972 363.62329102 126.07543945 C332.83097344 126.06626005 302.03865656 126.05917397 271.24633789 126.05493164 C270.29774391 126.05480011 269.34914993 126.05466859 268.37181068 126.05453308 C258.84593136 126.05321459 249.32005203 126.05193877 239.79417269 126.05069422 C220.38760781 126.04815778 200.98104297 126.04533652 181.57447815 126.04234314 C180.68212997 126.04220585 179.7897818 126.04206856 178.87039277 126.04192711 C151.51031017 126.03770271 124.150228 126.03227075 96.79014587 126.02565002 C96.01312584 126.02546247 95.2361058 126.02527491 94.4355397 126.02508167 C62.95702627 126.01746507 31.47851318 126.00857204 0 126 C0 84.42 0 42.84 0 0 Z " fill="#454547" transform="translate(0,0)"/>
<path d="M0 0 C46.2 0 92.4 0 140 0 C141.98 4.95 143.96 9.9 146 15 C147.87314993 18.84790686 147.87314993 18.84790686 149.82421875 22.65625 C150.99535443 24.99073972 152.02607599 27.3640608 153.04272461 29.76904297 C154.25954989 32.60488826 155.51835916 35.42090038 156.77734375 38.23828125 C157.29103516 39.38876953 157.80472656 40.53925781 158.33398438 41.72460938 C159.39797913 44.10531384 160.46307302 46.4855274 161.52929688 48.86523438 C164.50017176 55.52460475 167.34656565 62.2081818 170 69 C172.35136313 74.87119504 174.7658121 80.63706718 177.6875 86.25 C180.85978042 92.47032008 183.55714904 98.87208604 186.25 105.3125 C186.68658936 106.35116211 187.12317871 107.38982422 187.57299805 108.45996094 C187.98718994 109.45930664 188.40138184 110.45865234 188.828125 111.48828125 C189.1984082 112.38071533 189.56869141 113.27314941 189.95019531 114.19262695 C191.14931693 117.39930126 192.05948016 120.70818057 193 124 C129.31 124 65.62 124 0 124 C0 83.08 0 42.16 0 0 Z " fill="#3EBEAA" transform="translate(0,1)"/>
<path d="M0 0 C53.13 0 106.26 0 161 0 C161 0.66 161 1.32 161 2 C161.68449219 2.09152344 162.36898437 2.18304688 163.07421875 2.27734375 C166.65611172 3.16205697 169.61989442 4.77650627 172.8125 6.5625 C174.16051388 7.2986072 175.50950379 8.03292933 176.859375 8.765625 C177.54837891 9.14009766 178.23738281 9.51457031 178.94726562 9.90039062 C182.12133469 11.60067691 185.33730935 13.21183459 188.5625 14.8125 C189.2121875 15.13565186 189.861875 15.45880371 190.53125 15.79174805 C192.68680022 16.86258138 194.8433657 17.93135179 197 19 C208.38469647 24.64647743 219.73185328 30.34072245 230.95629883 36.30029297 C236.59630863 39.28586801 242.28353132 42.16387538 248 45 C255.24314558 48.59360157 262.41236067 52.30433078 269.55224609 56.09838867 C277.18175835 60.13397005 284.90307776 63.98058275 292.64160156 67.80224609 C294.07584473 68.5130835 294.07584473 68.5130835 295.5390625 69.23828125 C296.94273071 69.92966187 296.94273071 69.92966187 298.37475586 70.63500977 C300.7545012 71.87235341 302.96514132 73.24093116 305.23046875 74.671875 C311.52278141 78.19593332 318.66089826 78.86511259 325.6875 79.9375 C327.22737822 80.18589799 328.76700633 80.4358509 330.30639648 80.68725586 C334.37234047 81.34651142 338.44130875 81.98437773 342.51184082 82.61462402 C347.43477484 83.3771076 352.35600342 84.15054461 357.27760315 84.92158508 C358.08100632 85.04744492 358.88440948 85.17330475 359.7121582 85.30297852 C360.91275375 85.49115646 360.91275375 85.49115646 362.13760376 85.68313599 C363.75969495 85.93690479 365.38190887 86.18989032 367.00424194 86.44210815 C377.71541902 88.1080581 388.35721586 89.96707051 398.98706055 92.09912109 C411.30376852 94.52754796 423.71381593 96.39701664 436.11901855 98.30929565 C437.64830944 98.54667951 439.17705361 98.78761508 440.7052002 99.03225708 C443.94484 99.5484866 447.15451138 100.01568498 450.41992188 100.34716797 C458.62322047 101.27576873 463.47113213 104.52852717 469.75 109.75 C471.51562128 111.16146299 473.28124623 112.57292139 475.046875 113.984375 C476.29307617 115.00241211 476.29307617 115.00241211 477.56445312 116.04101562 C480.51430266 118.41366926 483.54493531 120.65946975 486.61035156 122.87988281 C487.06893555 123.24952148 487.52751953 123.61916016 488 124 C488 124.33 488 124.66 488 125 C446.28196417 125.17099229 404.56390076 125.33430999 362.84580868 125.49095565 C360.44542432 125.49997024 358.04504001 125.50899792 355.6446557 125.51802588 C270.23536279 125.83897662 184.82702605 126.09155628 85.9375 126.0625 C84.82015016 126.06207577 83.70280032 126.06165154 82.5515914 126.06121445 C55.03438499 126.05058103 27.51719065 126.03140034 0 126 C0 125.67 0 125.34 0 125 C63.69 125 127.38 125 193 125 C189.70985415 117.10364997 186.40269367 109.22246227 183 101.375 C182.38125 99.93640625 182.38125 99.93640625 181.75 98.46875 C179.36312339 92.96401581 176.81328347 87.58694538 174.09814453 82.23730469 C172.6891619 79.36671402 171.53758375 76.43877378 170.4375 73.4375 C168.50281107 68.18237608 166.29958506 63.10207003 164 58 C162.0181153 53.56371186 160.04068063 49.12544082 158.0625 44.6875 C157.55009766 43.54087891 157.03769531 42.39425781 156.50976562 41.21289062 C153.62545683 34.73693937 150.82060011 28.23915445 148.14306641 21.67480469 C146.62294732 18.11768707 144.89582371 14.68544564 143.11328125 11.25390625 C140 4.95087719 140 4.95087719 140 1 C93.8 1 47.6 1 0 1 C0 0.67 0 0.34 0 0 Z " fill="#39383A" transform="translate(0,0)"/>
<path d="M0 0 C18.1076158 -0.18756372 36.21497666 -0.32828656 54.32335663 -0.41449738 C62.7329929 -0.45560536 71.14202274 -0.51156641 79.55126953 -0.60351562 C86.88782998 -0.68369696 94.22395091 -0.7349696 101.5609374 -0.75270796 C105.43974377 -0.76306405 109.31729371 -0.78709037 113.19569397 -0.84584045 C143.18261648 -1.28246059 143.18261648 -1.28246059 157 8 C159.53587682 9.33572009 162.11728634 10.56248591 164.7109375 11.78125 C165.98012424 12.39639804 167.2486871 13.01283655 168.51635742 13.63110352 C169.80246921 14.25428039 171.08868522 14.87724222 172.375 15.5 C173.04399323 15.82426971 173.71298645 16.14853943 174.4022522 16.4826355 C182.97535132 20.63397736 191.56465522 24.7310542 200.32495117 28.47631836 C204.46258544 30.25416508 208.28374492 32.30243127 212.1875 34.5625 C216.69910452 36.82966286 219.79430308 37.21952237 224.80859375 36.78125 C225.45510895 36.72719498 226.10162415 36.67313995 226.76773071 36.6174469 C235.21966126 35.87261095 243.63425515 34.75233409 252.04589844 33.65405273 C259.72204716 32.65774611 267.23924252 31.73089096 275 32 C275.33 31.34 275.66 30.68 276 30 C283.26 29.67 290.52 29.34 298 29 C294.46939899 31.35373401 291.41404244 31.65778415 287.3125 32.125 C286.61060547 32.21136719 285.90871094 32.29773437 285.18554688 32.38671875 C283.45788855 32.59826875 281.7290434 32.800086 280 33 C288.96809944 41.43680173 288.96809944 41.43680173 298.375 49.375 C303.80053859 53.72182326 308.83911777 58.42970143 313.87451172 63.21630859 C314.48182129 63.79203613 315.08913086 64.36776367 315.71484375 64.9609375 C316.25230225 65.47446777 316.78976074 65.98799805 317.34350586 66.51708984 C318.95946942 68.0711914 318.95946942 68.0711914 320.98242188 69.11499023 C324.23084569 72.14997091 325.15984527 76.05519747 326.56640625 80.19921875 C326.88657211 81.10823441 327.20673798 82.01725006 327.53660583 82.95381165 C328.55753949 85.86090889 329.56033596 88.77388551 330.5625 91.6875 C331.2403208 93.62998192 331.91934434 95.57204459 332.59960938 97.51367188 C333.56258407 100.26334592 334.52380531 103.01349108 335.47572327 105.76701355 C335.76289719 106.59759781 336.05007111 107.42818207 336.34594727 108.28393555 C336.62020538 109.07818939 336.8944635 109.87244324 337.17703247 110.69076538 C337.97728325 112.93625713 338.84016757 115.14901162 339.71459961 117.36645508 C341 121 341 121 341 125 C382.25 125 423.5 125 466 125 C460.39 113.12 454.78 101.24 449 89 C444 78 444 78 444 76 C443.31679688 75.86464844 442.63359375 75.72929688 441.9296875 75.58984375 C427.64063514 72.53834536 413.83635535 67.63759977 400 63 C403.40625903 61.8396099 405.42638146 62.17189559 408.82421875 63.2578125 C409.76241455 63.55010742 410.70061035 63.84240234 411.66723633 64.14355469 C413.71030599 64.80745737 415.75310477 65.47219414 417.7956543 66.13769531 C422.49632083 67.65368499 427.06685658 69.10266434 431.9453125 69.9140625 C441.88977685 71.6845484 441.88977685 71.6845484 445.47607422 75.61962891 C448.54151464 80.06221478 450.61178178 84.94246528 452.68115234 89.90722656 C454.18256246 93.42811946 455.80795067 96.88271634 457.45703125 100.3359375 C459.80014922 105.26329659 462.12840112 110.19620279 464.41015625 115.15234375 C464.88590088 116.18351318 465.36164551 117.21468262 465.85180664 118.27709961 C466.80391835 120.53499924 467.50531581 122.60872879 468 125 C469.32 125.33 470.64 125.66 472 126 C453.41494416 126.21063476 434.83013191 126.3691405 416.24412823 126.46630955 C407.61343573 126.51263486 398.98348666 126.57574342 390.35327148 126.67895508 C382.82741538 126.7689161 375.30209787 126.82678377 367.77571899 126.84679645 C363.7935485 126.85848794 359.81291819 126.88578174 355.83124352 126.95157051 C352.07559218 127.01311616 348.32210012 127.03141626 344.56599236 127.01796913 C342.54606288 127.02158782 340.5263635 127.06978761 338.50704956 127.11978149 C328.72680237 127.02114683 323.79942333 123.85668001 317 117 C301.94971445 102.53400209 287.43953716 100.29275325 267.41461182 97.92425537 C259.73928133 97.01005865 252.15758765 95.72285481 244.55718994 94.32620239 C241.73141632 93.80802049 238.90310992 93.30447508 236.07473755 92.80070496 C234.01931631 92.43452064 231.96422528 92.0665281 229.90917969 91.69824219 C223.9631773 90.6361908 218.01393302 89.59365331 212.0625 88.5625 C210.93545654 88.36664307 209.80841309 88.17078613 208.6472168 87.96899414 C201.08973666 86.66844305 193.52302363 85.43950374 185.94921875 84.23828125 C183.99795347 83.92707732 182.04670026 83.61579772 180.09545898 83.30444336 C176.26684165 82.69374146 172.43680146 82.09326798 168.60571289 81.49829102 C166.82562563 81.21537096 165.0455938 80.93210188 163.265625 80.6484375 C162.46360153 80.52668655 161.66157806 80.40493561 160.83525085 80.27949524 C153.01517176 79.01667661 145.93056482 76.71350783 138.91796875 72.99609375 C137.83128906 72.42536133 136.74460937 71.85462891 135.625 71.26660156 C134.490625 70.66299805 133.35625 70.05939453 132.1875 69.4375 C129.77628797 68.16761911 127.36264771 66.90238 124.94921875 65.63671875 C124.05485611 65.1664476 124.05485611 65.1664476 123.14242554 64.68667603 C117.96391364 61.96774122 112.74237864 59.34304409 107.5 56.75 C100.32140068 53.19071665 93.22012767 49.50475706 86.14257812 45.74902344 C80.46909824 42.74803883 74.74933331 39.85265457 69 37 C57.75763779 31.41759319 46.67053807 25.55484509 35.59375 19.65234375 C28.55570679 15.90578718 21.50114076 12.2018017 14.375 8.625 C13.73602783 8.30321777 13.09705566 7.98143555 12.4387207 7.64990234 C8.34811374 5.61133658 4.21300689 3.76534736 0 2 C0 1.34 0 0.68 0 0 Z " fill="#515153" transform="translate(161,0)"/>
<path d="M0 0 C1.44764236 -0.00374634 1.44764236 -0.00374634 2.92453003 -0.00756836 C22.26316356 -0.0485535 41.52974403 0.58763178 60.875 1.125 C60.875 38.415 60.875 75.705 60.875 114.125 C57.72206435 115.17597855 56.83398385 115.44389456 53.875 114.125 C52.40209961 111.89794922 52.40209961 111.89794922 51.02734375 108.9296875 C50.25438965 107.28311157 50.25438965 107.28311157 49.46582031 105.60327148 C48.92022461 104.41419189 48.37462891 103.2251123 47.8125 102 C47.22116729 100.77479547 46.62705783 99.55092749 46.03027344 98.32836914 C43.20558137 92.48907407 40.66800081 86.77593755 38.73828125 80.56640625 C36.19248528 72.95815479 33.87954978 66.34634281 26.55908203 62.28564453 C18.40390272 58.77374199 9.66530422 56.90830601 1.01611328 55.04980469 C-4.87388942 53.77091428 -10.61311455 52.00725649 -16.375 50.25 C-23.81178551 48.02514371 -23.81178551 48.02514371 -31.34375 46.16015625 C-32.5090625 45.88042969 -33.674375 45.60070313 -34.875 45.3125 C-36.29039062 45.02439453 -36.29039062 45.02439453 -37.734375 44.73046875 C-41.81561701 41.98963466 -42.62160051 37.65539022 -44.125 33.125 C-44.5365332 31.93801514 -44.94806641 30.75103027 -45.37207031 29.52807617 C-46.50515148 26.24754913 -47.60791981 22.95772381 -48.69921875 19.66308594 C-49.38349678 17.59937459 -50.07428701 15.53791816 -50.765625 13.4765625 C-51.20351059 12.16158667 -51.64102475 10.84648709 -52.078125 9.53125 C-52.47161133 8.34853516 -52.86509766 7.16582031 -53.27050781 5.94726562 C-54.125 3.125 -54.125 3.125 -54.125 1.125 C-36.08241292 0.28695025 -18.06007632 0.01566247 0 0 Z " fill="#353537" transform="translate(575.125,10.875)"/>
<path d="M0 0 C69.96 0 139.92 0 212 0 C216 9 216 9 216 12 C204.47533403 18.68807372 194.07003491 24.29437865 180.69384766 25.69775391 C177.36265581 26.07150916 174.04940157 26.54146239 170.73046875 27.01171875 C159.64529726 28.56858206 148.60385054 30.0725438 137.42285156 30.74951172 C135.05260512 30.73718132 135.05260512 30.73718132 134 32 C131.69430819 32.34915738 129.37943989 32.63792897 127.0625 32.90234375 C126.34956787 32.98496964 125.63663574 33.06759552 124.90209961 33.15272522 C122.60184707 33.41839263 120.30096282 33.67806355 118 33.9375 C116.51037048 34.10832165 115.02078655 34.2795414 113.53125 34.45117188 C111.29160782 34.70907619 109.0518821 34.9660466 106.81176758 35.21981812 C102.97003807 35.65523279 99.13042354 36.10298836 95.29296875 36.57470703 C94.53040771 36.66756485 93.76784668 36.76042267 92.98217773 36.85609436 C91.53991836 37.03236415 90.09799318 37.21140032 88.65649414 37.39378357 C82.13856715 38.1860236 77.45082989 38.59989577 71.4921875 35.61328125 C69.90954102 34.83355957 69.90954102 34.83355957 68.29492188 34.03808594 C67.16634766 33.46864258 66.03777344 32.89919922 64.875 32.3125 C63.06758548 31.42061234 61.26014601 30.52877167 59.45135498 29.63967896 C58.19916096 29.02411147 56.94758112 28.40729314 55.69659424 27.78927612 C49.01655246 24.49537479 42.26353789 21.36845635 35.5 18.25 C33.17828809 17.17468927 30.85667128 16.09917321 28.53515625 15.0234375 C25.34977778 13.5489584 22.16393574 12.07554862 18.97607422 10.60644531 C16.29367987 9.36869947 13.61514972 8.12296857 10.9375 6.875 C10.1640625 6.52083008 9.390625 6.16666016 8.59375 5.80175781 C5.07586382 4.15416066 2.78556807 2.78556807 0 0 Z " fill="#373738" transform="translate(302,0)"/>
<path d="M0 0 C10.4865733 7.02914723 17.12275934 16.14710674 20.9296875 28.171875 C20.9296875 29.161875 20.9296875 30.151875 20.9296875 31.171875 C20.2696875 31.171875 19.6096875 31.171875 18.9296875 31.171875 C18.9296875 30.511875 18.9296875 29.851875 18.9296875 29.171875 C17.4446875 28.676875 17.4446875 28.676875 15.9296875 28.171875 C15.9296875 27.511875 15.9296875 26.851875 15.9296875 26.171875 C9.27457728 22.71121768 3.02944757 20.59647024 -4.30078125 19.015625 C-7.17240795 18.14077117 -8.75215531 17.02832454 -11.0703125 15.171875 C-14.09967202 13.61676231 -16.65751741 13.01943026 -20.0703125 13.171875 C-23.64180228 14.67323897 -26.84369632 16.4605875 -30.15234375 18.47265625 C-32.61133463 19.90459873 -34.2779725 20.85429127 -37.0703125 21.171875 C-38.1634375 20.841875 -39.2565625 20.511875 -40.3828125 20.171875 C-46.70086805 18.458504 -51.55465852 19.97793648 -57.17578125 22.93359375 C-59.09125043 24.1855602 -60.4207496 25.47553036 -61.9453125 27.171875 C-65.05066253 30.5672852 -68.53114351 31.70217197 -72.796875 33.2265625 C-75.5348263 34.36502335 -77.1542216 35.93643561 -79.0703125 38.171875 C-79.7303125 38.171875 -80.3903125 38.171875 -81.0703125 38.171875 C-81.84092657 26.35579258 -76.56356047 16.920046 -69.2578125 7.9453125 C-51.06740085 -11.6851734 -22.15489248 -13.1914627 0 0 Z " fill="#FAFDFC" transform="translate(111.0703125,26.828125)"/>
<path d="M0 0 C39.93 0 79.86 0 121 0 C121 3.3 121 6.6 121 10 C82.72 10 44.44 10 5 10 C1 3 1 3 0 0 Z " fill="#303234" transform="translate(515,0)"/>
<path d="M0 0 C1.45267262 0.29971498 2.91191251 0.56865209 4.375 0.8125 C7.90421132 1.51599727 9.98195036 2.52331127 12.75 4.8125 C17.05444975 8.36345452 21.71888852 10.001433 26.94921875 11.82421875 C29.90116187 12.96190746 32.41284793 14.1808337 35 16 C35 16.66 35 17.32 35 18 C35.53625 18.268125 36.0725 18.53625 36.625 18.8125 C39.41666667 20.20833333 42.20833333 21.60416667 45 23 C45 23.33 45 23.66 45 24 C40.31037629 23.62780764 36.20841935 23.19391629 31.8125 21.5 C26.67109921 19.61058063 21.57248674 19.54976863 16.13671875 19.40625 C12.68896769 18.95971686 11.66510624 18.07705648 9 16 C6.29012354 15.5002351 6.29012354 15.5002351 3.4375 15.4375 C-0.4059691 15.26540437 -1.70968499 15.19354334 -5 13 C-12.78413031 11.70264495 -18.53221375 16.29090496 -24.96484375 20.19140625 C-27.69328166 21.27544972 -29.95022802 21.1555271 -32.875 21.0625 C-37.05747148 20.98580431 -40.89301491 21.08733665 -45 22 C-41.80543779 14.67979714 -35.37062782 10.93318733 -28.2265625 8.09765625 C-24.94594279 6.48036829 -22.57482631 4.08584803 -19.91015625 1.6171875 C-13.1224418 -4.12946645 -7.57135205 -3.78567602 0 0 Z " fill="#080D0D" transform="translate(73,48)"/>
<path d="M0 0 C3.24512351 2.78153444 3.86692388 4.73384776 6 9 C44.28 9.33 82.56 9.66 122 10 C122 10.66 122 11.32 122 12 C84.05 12 46.1 12 7 12 C10.63 22.56 14.26 33.12 18 44 C18.99 46.97 19.98 49.94 21 53 C23.35163951 54.78696314 23.35163951 54.78696314 26.25390625 55.33984375 C27.27291016 55.61763672 28.29191406 55.89542969 29.34179688 56.18164062 C30.40462891 56.43107422 31.46746094 56.68050781 32.5625 56.9375 C34.66919167 57.48358503 36.77472897 58.03414905 38.87890625 58.58984375 C39.8129126 58.81534912 40.74691895 59.04085449 41.70922852 59.27319336 C44 60 44 60 46 62 C40.20437531 61.34211828 34.82204726 59.95520148 29.25 58.25 C28.40050781 58.01023438 27.55101562 57.77046875 26.67578125 57.5234375 C25.45181641 57.14832031 25.45181641 57.14832031 24.203125 56.765625 C23.09952637 56.43739746 23.09952637 56.43739746 21.97363281 56.10253906 C16.98731782 53.31701228 15.74057832 46.75098641 14.08203125 41.63671875 C13.81992355 40.84473587 13.55781586 40.05275299 13.2877655 39.23677063 C12.45699443 36.72217815 11.63463946 34.20492614 10.8125 31.6875 C10.24860143 29.97572867 9.68415417 28.264138 9.11914062 26.55273438 C7.73973252 22.37055433 6.3678625 18.18596976 5 14 C1.49828697 15.10378062 -1.71286775 16.23792524 -4.8828125 18.09375 C-16.33331201 24.59983781 -25.70314922 27.44322836 -39 27 C-39 26.67 -39 26.34 -39 26 C-38.4330542 25.93119629 -37.8661084 25.86239258 -37.28198242 25.79150391 C-23.0840704 23.94873235 -11.86166044 20.31557034 0.37792969 12.85449219 C2 12 2 12 4 12 C3.71125 11.38511719 3.4225 10.77023437 3.125 10.13671875 C2.75375 9.32847656 2.3825 8.52023437 2 7.6875 C1.62875 6.88699219 1.2575 6.08648437 0.875 5.26171875 C0 3 0 3 0 0 Z " fill="#555658" transform="translate(514,0)"/>
<path d="M0 0 C0.66 0 1.32 0 2 0 C2.33 0.99 2.66 1.98 3 3 C3.33 2.01 3.66 1.02 4 0 C5.98 0 7.96 0 10 0 C9.88623383 2.12563103 9.75864369 4.2505261 9.625 6.375 C9.55539063 7.55835937 9.48578125 8.74171875 9.4140625 9.9609375 C9 13 9 13 7 15 C6.67 15.66 6.34 16.32 6 17 C6.66 17 7.32 17 8 17 C8.33 17.66 8.66 18.32 9 19 C9.33 18.34 9.66 17.68 10 17 C12.4375 17.375 12.4375 17.375 15 18 C15.33 18.66 15.66 19.32 16 20 C16.33 19.01 16.66 18.02 17 17 C17.99 17 18.98 17 20 17 C20.33 19.31 20.66 21.62 21 24 C20.01 24.66 19.02 25.32 18 26 C20.31 26.33 22.62 26.66 25 27 C24.67 27.99 24.34 28.98 24 30 C14 30 4 30 -6 30 C-6 29.01 -6 28.02 -6 27 C-1.38 27 3.24 27 8 27 C8 26.34 8 25.68 8 25 C3.545 24.01 3.545 24.01 -1 23 C-1 21.02 -1 19.04 -1 17 C0.32 16.34 1.64 15.68 3 15 C2.34 14.67 1.68 14.34 1 14 C0.5859375 10.83984375 0.5859375 10.83984375 0.375 6.9375 C0.30023438 5.64714844 0.22546875 4.35679688 0.1484375 3.02734375 C0.09945312 2.02832031 0.05046875 1.02929688 0 0 Z " fill="#3BAC9A" transform="translate(58,77)"/>
<path d="M0 0 C1.98 0 3.96 0 6 0 C7 1 7 1 7.0625 2.99609375 C7.02089996 4.62109546 6.9792335 6.24609547 6.9375 7.87109375 C6.85218862 10.05502216 6.85218862 10.05502216 8 12 C8.33 8.04 8.66 4.08 9 0 C9.99 0 10.98 0 12 0 C12.05384521 2.29141286 12.09272087 4.58318188 12.125 6.875 C12.14820312 8.15117188 12.17140625 9.42734375 12.1953125 10.7421875 C12 14 12 14 10 16 C10.33652369 18.51599015 10.33652369 18.51599015 11 21 C11 21.66 11 22.32 11 23 C9.68 23 8.36 23 7 23 C7 21.02 7 19.04 7 17 C6.34 17 5.68 17 5 17 C5 18.98 5 20.96 5 23 C3.68 23 2.36 23 1 23 C1 20.69 1 18.38 1 16 C2.32 15.67 3.64 15.34 5 15 C4.67 14.67 4.34 14.34 4 14 C3.95919217 12.00041636 3.95745644 9.99954746 4 8 C3.34 8 2.68 8 2 8 C2 9.65 2 11.3 2 13 C1.34 13 0.68 13 0 13 C0 8.71 0 4.42 0 0 Z " fill="#27695E" transform="translate(91,77)"/>
<path d="M0 0 C1.32 0 2.64 0 4 0 C4.33 1.65 4.66 3.3 5 5 C5.66 3.35 6.32 1.7 7 0 C7.66 0 8.32 0 9 0 C9.33 2.31 9.66 4.62 10 7 C8.68 7.33 7.36 7.66 6 8 C7.87824891 9.87824891 11.03935276 9.39102397 13.5625 9.5625 C14.76003906 9.64628906 15.95757812 9.73007813 17.19140625 9.81640625 C18.11824219 9.87699219 19.04507813 9.93757813 20 10 C20 10.99 20 11.98 20 13 C14.72 13 9.44 13 4 13 C1.49183541 7.98367082 0.53303839 5.33038387 0 0 Z " fill="#3CB19F" transform="translate(80,94)"/>
<path d="M0 0 C0.66 0 1.32 0 2 0 C2.33 0.99 2.66 1.98 3 3 C3.33 2.01 3.66 1.02 4 0 C5.98 0 7.96 0 10 0 C9.67 4.29 9.34 8.58 9 13 C6.69 13 4.38 13 2 13 C0.54815522 8.46298506 -0.23509196 4.81938524 0 0 Z " fill="#142623" transform="translate(58,77)"/>
<path d="M0 0 C1.32 0.33 2.64 0.66 4 1 C5.32 0.67 6.64 0.34 8 0 C8 4.29 8 8.58 8 13 C7.01 13 6.02 13 5 13 C4.67 12.01 4.34 11.02 4 10 C3.67 10.99 3.34 11.98 3 13 C2.01 13 1.02 13 0 13 C0 8.71 0 4.42 0 0 Z " fill="#19312D" transform="translate(38,77)"/>
<path d="M0 0 C1.98 0 3.96 0 6 0 C7.66561399 1.66561399 7.17115945 3.65962705 7.1875 5.9375 C7.20167969 6.83339844 7.21585938 7.72929688 7.23046875 8.65234375 C7 11 7 11 5 13 C3.35 12.67 1.7 12.34 0 12 C0 8.04 0 4.08 0 0 Z " fill="#275E55" transform="translate(49,77)"/>
<path d="M0 0 C1.98 0 3.96 0 6 0 C7 1 7 1 7.09765625 3.72265625 C7.08605469 4.82480469 7.07445312 5.92695312 7.0625 7.0625 C7.05347656 8.16722656 7.04445312 9.27195312 7.03515625 10.41015625 C7.02355469 11.26480469 7.01195312 12.11945313 7 13 C4.66666667 13 2.33333333 13 0 13 C0 8.71 0 4.42 0 0 Z " fill="#20453E" transform="translate(124,77)"/>
<path d="M0 0 C2.31 0 4.62 0 7 0 C7 0.66 7 1.32 7 2 C5.68 2 4.36 2 3 2 C3 2.99 3 3.98 3 5 C3.99 5 4.98 5 6 5 C6 5.66 6 6.32 6 7 C5.01 7 4.02 7 3 7 C3 8.32 3 9.64 3 11 C4.32 11 5.64 11 7 11 C7 11.66 7 12.32 7 13 C4.69 13 2.38 13 0 13 C0 8.71 0 4.42 0 0 Z " fill="#182D29" transform="translate(115,77)"/>
<path d="M0 0 C0.66 0 1.32 0 2 0 C2.33 0.99 2.66 1.98 3 3 C3.33 2.01 3.66 1.02 4 0 C4.99 0 5.98 0 7 0 C6.34 4.29 5.68 8.58 5 13 C3.68 12.67 2.36 12.34 1 12 C0.67 8.04 0.34 4.08 0 0 Z " fill="#0F1A18" transform="translate(106,77)"/>
<path d="M0 0 C0.33 0 0.66 0 1 0 C2.55577239 5.65735415 1.24281523 8.79666866 -1 14 C-2.65 14 -4.3 14 -6 14 C-6 12.02 -6 10.04 -6 8 C-4.68 7.34 -3.36 6.68 -2 6 C-2.66 5.67 -3.32 5.34 -4 5 C-3.67 4.34 -3.34 3.68 -3 3 C-2.01 3.33 -1.02 3.66 0 4 C0 2.68 0 1.36 0 0 Z " fill="#3FBAA7" transform="translate(63,86)"/>
<path d="M0 0 C1.2065625 0.0309375 1.2065625 0.0309375 2.4375 0.0625 C2.4375 1.0525 2.4375 2.0425 2.4375 3.0625 C1.1175 2.7325 -0.2025 2.4025 -1.5625 2.0625 C-0.716875 2.97 0.12875 3.8775 1 4.8125 C3.46353251 7.73275483 3.46353251 7.73275483 3.25 10.4375 C2.981875 10.97375 2.71375 11.51 2.4375 12.0625 C0.7875 12.3925 -0.8625 12.7225 -2.5625 13.0625 C-2.8925 11.7425 -3.2225 10.4225 -3.5625 9.0625 C-2.9025 9.0625 -2.2425 9.0625 -1.5625 9.0625 C-1.5625 9.7225 -1.5625 10.3825 -1.5625 11.0625 C-0.9025 11.0625 -0.2425 11.0625 0.4375 11.0625 C-0.2740625 9.9796875 -0.2740625 9.9796875 -1 8.875 C-2.5108244 6.15551608 -3.22111181 4.13499371 -3.5625 1.0625 C-2.5625 0.0625 -2.5625 0.0625 0 0 Z " fill="#0F1917" transform="translate(32.5625,76.9375)"/>
<path d="M0 0 C5.61 0 11.22 0 17 0 C16.67 1.32 16.34 2.64 16 4 C15.29488281 3.83628906 14.58976562 3.67257813 13.86328125 3.50390625 C10.90341312 2.98300176 8.18938727 2.90133268 5.1875 2.9375 C4.21167969 2.94652344 3.23585937 2.95554687 2.23046875 2.96484375 C1.49441406 2.97644531 0.75835937 2.98804687 0 3 C0 2.01 0 1.02 0 0 Z " fill="#538B83" transform="translate(52,104)"/>
<path d="M0 0 C5.28 0 10.56 0 16 0 C16 0.99 16 1.98 16 3 C10.72 3 5.44 3 0 3 C0 2.01 0 1.02 0 0 Z " fill="#3C625C" transform="translate(84,104)"/>
<path d="M0 0 C1.32 0.33 2.64 0.66 4 1 C4.99 0.67 5.98 0.34 7 0 C6.34 4.29 5.68 8.58 5 13 C4.01 13 3.02 13 2 13 C1.34 8.71 0.68 4.42 0 0 Z " fill="#132320" transform="translate(71,77)"/>
<path d="M0 0 C1.98 0 3.96 0 6 0 C7 1 7 1 7.0625 3.5625 C7.041875 4.366875 7.02125 5.17125 7 6 C6.34 6 5.68 6 5 6 C5 4.68 5 3.36 5 2 C4.01 2 3.02 2 2 2 C2 3.32 2 4.64 2 6 C2.66 6.33 3.32 6.66 4 7 C3.34 7 2.68 7 2 7 C2 8.98 2 10.96 2 13 C1.34 13 0.68 13 0 13 C0 8.71 0 4.42 0 0 Z " fill="#0F1816" transform="translate(91,77)"/>
<path d="M0 0 C0.66 0 1.32 0 2 0 C2.33 0.99 2.66 1.98 3 3 C3.33 2.01 3.66 1.02 4 0 C4.66 0 5.32 0 6 0 C6 1.65 6 3.3 6 5 C4.02 5.99 4.02 5.99 2 7 C2.66 7 3.32 7 4 7 C4 8.98 4 10.96 4 13 C3.01 12.67 2.02 12.34 1 12 C0.67 8.04 0.34 4.08 0 0 Z " fill="#0F1B19" transform="translate(58,77)"/>
<path d="M0 0 C0.90105469 0.00902344 1.80210938 0.01804687 2.73046875 0.02734375 C3.41753906 0.03894531 4.10460937 0.05054687 4.8125 0.0625 C4.4825 1.0525 4.1525 2.0425 3.8125 3.0625 C-0.1475 3.0625 -4.1075 3.0625 -8.1875 3.0625 C-8.1875 2.4025 -8.1875 1.7425 -8.1875 1.0625 C-5.17259443 0.05753148 -3.14568308 -0.04085303 0 0 Z " fill="#4C857C" transform="translate(78.1875,103.9375)"/>
<path d="M0 0 C1.65 0 3.3 0 5 0 C6 1 6 1 6.0625 3.5625 C6.041875 4.366875 6.02125 5.17125 6 6 C5.01 6.495 5.01 6.495 4 7 C4 5.35 4 3.7 4 2 C3.01 2 2.02 2 1 2 C1.185625 2.721875 1.37125 3.44375 1.5625 4.1875 C2.01995307 7.12826973 1.73516357 9.14103058 1 12 C0.67 12 0.34 12 0 12 C0 8.04 0 4.08 0 0 Z " fill="#070B0B" transform="translate(125,77)"/>
<path d="M0 0 C0.99 0 1.98 0 3 0 C2.67 4.29 2.34 8.58 2 13 C1.34 13 0.68 13 0 13 C0 8.71 0 4.42 0 0 Z " fill="#152724" transform="translate(38,77)"/>
<path d="M0 0 C0.33 0 0.66 0 1 0 C1.33 2.64 1.66 5.28 2 8 C2.66 8 3.32 8 4 8 C4.33 5.36 4.66 2.72 5 0 C5.33 0 5.66 0 6 0 C6 3.3 6 6.6 6 10 C4.34385343 10.38218767 2.67542976 10.71395102 1 11 C0 10 0 10 -0.09765625 7.71484375 C-0.08605469 6.79832031 -0.07445312 5.88179688 -0.0625 4.9375 C-0.05347656 4.01839844 -0.04445312 3.09929687 -0.03515625 2.15234375 C-0.02355469 1.44207031 -0.01195312 0.73179688 0 0 Z " fill="#070A09" transform="translate(49,79)"/>
<path d="M0 0 C0.99 0 1.98 0 3 0 C3.66 3.63 4.32 7.26 5 11 C4.01 10.67 3.02 10.34 2 10 C2 8.68 2 7.36 2 6 C1.34 5.67 0.68 5.34 0 5 C0 3.35 0 1.7 0 0 Z " fill="#1E453F" transform="translate(93,79)"/>
<path d="M0 0 C0.66 0 1.32 0 2 0 C3.49821059 3.37097383 4 5.20442119 4 9 C3.34 9 2.68 9 2 9 C1.67 9.99 1.34 10.98 1 12 C0.67 8.04 0.34 4.08 0 0 Z " fill="#162C28" transform="translate(106,77)"/>
<path d="M0 0 C1.32 0 2.64 0 4 0 C4 1.98 4 3.96 4 6 C2.68 6 1.36 6 0 6 C0 4.02 0 2.04 0 0 Z " fill="#192E2B" transform="translate(92,94)"/>
<path d="M0 0 C3.96 0 7.92 0 12 0 C7.28954732 2.35522634 5.22786799 3.1136493 0 3 C0 2.01 0 1.02 0 0 Z " fill="#508079" transform="translate(84,104)"/>
<path d="M0 0 C1.32 0 2.64 0 4 0 C4 0.66 4 1.32 4 2 C3.34 2 2.68 2 2 2 C2 2.66 2 3.32 2 4 C2.66 4 3.32 4 4 4 C4 4.66 4 5.32 4 6 C2.68 6 1.36 6 0 6 C0 4.02 0 2.04 0 0 Z " fill="#21423C" transform="translate(57,94)"/>
<path d="M0 0 C0.66 0 1.32 0 2 0 C2.33 1.98 2.66 3.96 3 6 C1.68 6 0.36 6 -1 6 C-0.67 4.02 -0.34 2.04 0 0 Z " fill="#1D3531" transform="translate(87,94)"/>
<path d="M0 0 C1.32 0 2.64 0 4 0 C4 1.65 4 3.3 4 5 C3.01 5.33 2.02 5.66 1 6 C0.67 4.02 0.34 2.04 0 0 Z " fill="#213E38" transform="translate(80,94)"/>
<path d="M0 0 C0.99 0 1.98 0 3 0 C3 1.98 3 3.96 3 6 C2.01 6 1.02 6 0 6 C0 4.02 0 2.04 0 0 Z " fill="#1B2C28" transform="translate(69,94)"/>
<path d="M0 0 C0.99 0 1.98 0 3 0 C3 1.98 3 3.96 3 6 C1.68 6 0.36 6 -1 6 C-0.67 4.02 -0.34 2.04 0 0 Z " fill="#1E3B35" transform="translate(99,94)"/>
<path d="M0 0 C0.99 0 1.98 0 3 0 C3 1.98 3 3.96 3 6 C2.01 6 1.02 6 0 6 C0 4.02 0 2.04 0 0 Z " fill="#19302C" transform="translate(75,94)"/>
<path d="M0 0 C0.99 0 1.98 0 3 0 C3 1.98 3 3.96 3 6 C2.01 6 1.02 6 0 6 C0 4.02 0 2.04 0 0 Z " fill="#1B312D" transform="translate(63,94)"/>
</svg>
